<svg width="878" height="660" viewBox="0 0 878 660" fill="none" xmlns="http://www.w3.org/2000/svg">
<g clip-path="url(#clip0)">
<path opacity="0.5" fill-rule="evenodd" clip-rule="evenodd" d="M9.92499 660H876.731C887.706 512.198 741.988 419.063 662.82 368.462C652.535 361.889 643.374 356.033 635.825 350.869C602.737 328.232 578.201 278.801 552.106 226.228C504.03 129.372 450.663 21.8545 328.774 51.5907C221.611 77.8024 60.553 189.332 0 356.181V633.297C3.00403 642.129 6.30896 651.031 9.92499 660Z" fill="url(#paint0_linear)"/>
<path d="M401 465C526.921 465 629 475.297 629 488C629 500.703 526.921 511 401 511C275.079 511 173 500.703 173 488C173 475.297 275.079 465 401 465Z" fill="#F0F0F5"/>
<path d="M194.62 398.817C194.62 398.817 226.968 491.056 230.434 491.056C233.9 491.056 303.218 512.963 241.987 485.291C241.987 485.291 235.055 384.981 224.657 380.369C214.26 375.758 194.62 398.817 194.62 398.817Z" fill="#965450"/>
<path d="M218.881 465.229C208.368 437.903 194.619 398.817 194.619 398.817C194.619 398.817 214.26 375.758 224.657 380.369C231.358 383.367 236.672 426.489 239.561 456.466C232.629 459.234 225.813 462.231 218.881 465.229Z" fill="#76413B"/>
<path d="M252.038 490.249C252.038 490.249 254.695 496.36 229.279 489.903L230.434 493.362C230.434 493.362 302.062 510.196 252.038 490.249Z" fill="#051F38"/>
<path d="M214.26 359.731C214.26 359.731 164.236 443.784 166.431 446.436C168.626 449.087 196.353 516.191 178.331 451.509C178.331 451.509 250.883 381.753 247.764 370.8C244.529 359.962 214.26 359.731 214.26 359.731Z" fill="#965450"/>
<path d="M180.872 462.347C180.872 462.347 177.868 468.342 166.546 444.706L164.582 447.819C164.698 447.819 197.739 513.539 180.872 462.347Z" fill="#051F38"/>
<path d="M185.146 409.771C198.548 386.134 214.26 359.731 214.26 359.731C214.26 359.731 244.529 359.962 247.764 370.8C249.843 377.833 220.036 409.655 198.894 431.101C198.779 431.216 190.576 422.108 185.146 409.771Z" fill="#76413B"/>
<path d="M182.49 233.364C182.49 233.364 213.106 199.351 231.013 220.681C248.92 242.011 276.647 312.343 272.604 341.168C270.177 358.117 253.888 376.219 240.833 388.325L251.808 450.125C251.808 450.125 206.752 462.231 209.64 462.231C211.373 462.231 165.161 338.286 160.54 299.084C155.918 259.883 182.49 233.364 182.49 233.364Z" fill="#34CB79"/>
<path opacity="0.2" d="M205.941 240.974C197.392 240.858 188.034 239.705 179.832 236.362C181.449 234.402 182.489 233.364 182.489 233.364C182.489 233.364 213.104 199.351 231.011 220.681C233.784 224.025 236.788 228.406 239.792 233.71C229.74 239.244 217.032 241.204 205.941 240.974Z" fill="#352C38"/>
<path opacity="0.2" d="M251.807 257.461C264.515 286.401 275.259 322.374 272.602 341.053C270.292 357.886 254.117 375.873 241.063 387.979C236.441 356.618 228.008 313.035 222.924 287.9C235.517 280.752 245.915 270.49 251.807 257.461Z" fill="#352C38"/>
<path d="M270.869 165.337L289.354 201.08C289.354 201.08 321.702 183.209 326.324 183.209C330.945 183.209 352.895 183.785 342.498 188.397C342.498 188.397 347.119 191.279 341.92 192.432C341.92 192.432 346.541 196.468 340.765 197.044L327.479 196.468C327.479 196.468 300.907 220.681 287.621 224.139C274.335 227.598 252.962 182.632 252.962 182.632L270.869 165.337Z" fill="#965450"/>
<path d="M267.865 190.934C264.977 191.972 261.973 193.01 258.969 194.047C255.272 187.591 252.962 182.517 252.962 182.517L270.869 165.223L281.036 184.823C276.992 187.36 272.486 189.32 267.865 190.934Z" fill="#76413B"/>
<path d="M247.764 148.043C247.764 148.043 265.093 145.161 271.448 154.385C277.802 163.608 280.69 178.597 280.69 178.597L255.851 190.704L247.764 148.043Z" fill="#34CB79"/>
<path opacity="0.1" d="M257.352 180.673C263.706 175.715 270.985 169.489 275.721 161.994C279.187 170.065 280.805 178.482 280.805 178.482L255.966 190.588L254.464 182.748C255.388 182.172 256.428 181.48 257.352 180.673Z" fill="#161826"/>
<path d="M369.301 178.943C368.608 180.788 369.647 182.863 371.496 183.555L385.128 188.513C386.977 189.205 389.056 188.167 389.75 186.322L395.179 171.218C395.873 169.373 394.833 167.298 392.984 166.606L379.352 161.648C377.503 160.957 375.424 161.994 374.731 163.839L369.301 178.943Z" fill="#23173B"/>
<path d="M358.326 167.644L401.072 182.979C408.581 185.63 412.393 193.932 409.736 201.426L396.566 237.976C393.909 245.47 385.591 249.275 378.081 246.623L335.335 231.289C327.826 228.637 324.013 220.335 326.67 212.841L339.841 176.291C342.613 168.797 350.816 164.877 358.326 167.644ZM330.829 216.185C329.79 219.182 331.292 222.526 334.295 223.564L352.665 172.832C349.661 171.795 346.31 173.294 345.271 176.291L330.829 216.185Z" fill="#322153"/>
<path d="M372.074 163.608C371.496 165.223 372.305 167.067 373.922 167.644L393.331 174.677C394.949 175.254 396.797 174.447 397.375 172.832L398.992 168.336C399.57 166.722 398.761 164.877 397.144 164.3L377.735 157.267C376.117 156.691 374.269 157.498 373.691 159.112L372.074 163.608Z" fill="#6633CC"/>
<path d="M344.809 185.515C344.809 185.515 337.53 182.979 336.259 184.477C335.104 185.861 342.382 187.936 342.036 188.052C341.805 188.167 334.18 186.438 333.487 188.052C332.793 189.666 341.574 192.548 341.574 192.548C341.574 192.548 333.256 190.242 332.678 191.972C332.1 193.701 341.343 196.238 341.343 196.238L341.805 192.433L342.382 188.052L344.809 185.515Z" fill="#965450"/>
<path d="M334.526 183.555C334.526 183.555 340.187 179.75 340.187 178.482C340.303 177.098 325.168 183.44 325.168 183.44L334.526 183.555Z" fill="#965450"/>
<path d="M222.925 145.161C224.08 147.236 218.419 98.9261 218.419 98.9261L244.644 116.567C244.644 116.567 242.334 147.467 245.222 147.582C246.377 147.582 250.883 149.312 255.851 151.156C254.695 156.921 252.385 158.189 250.421 163.724C235.748 163.609 219.805 163.263 210.794 149.888C215.993 148.159 221.423 142.278 222.925 145.161Z" fill="#76413B"/>
<path d="M247.764 148.043L248.919 144.008L220.036 137.666L218.881 144.584C218.881 144.584 184.222 156.114 179.601 182.056C174.98 207.998 177.29 224.717 182.489 233.364C182.489 233.364 222.925 239.129 240.254 230.482C257.584 221.834 275.491 157.267 266.248 151.502C257.006 145.737 247.764 148.043 247.764 148.043Z" fill="#6633CC"/>
<path opacity="0.1" d="M209.985 219.874C223.849 219.067 240.832 217.453 252.385 208.921C254.58 207.307 256.544 205.577 258.392 203.617C253.193 216.415 246.724 227.253 240.254 230.482C222.924 239.129 182.489 233.364 182.489 233.364C180.178 229.559 178.445 224.14 177.637 216.992C188.034 220.105 198.894 220.566 209.985 219.874Z" fill="#161826"/>
<path d="M211.372 199.927L181.912 197.621C181.912 197.621 189.421 249.505 198.086 267.377C206.75 285.248 246.608 355.58 231.012 316.378C231.012 316.378 251.229 346.933 233.9 315.802C233.9 315.802 252.962 340.591 236.211 314.073C236.211 314.073 255.851 336.556 235.055 304.849C235.055 304.849 250.652 312.343 233.322 299.66L216.57 255.847L211.372 199.927Z" fill="#965450"/>
<path d="M182.605 201.772C182.142 199.12 181.911 197.506 181.911 197.506L211.372 199.812L211.603 202.81C202.014 202.81 192.309 202.349 182.605 201.772Z" fill="#76413B"/>
<path d="M242.218 67.9108C242.218 67.9108 227.545 59.3787 206.057 73.4451C191.847 82.7843 192.54 112.647 223.271 132.247C259.778 155.538 242.218 67.9108 242.218 67.9108Z" fill="#051F38"/>
<path d="M221.884 83.822C221.884 83.822 238.405 71.0238 252.5 77.25C270.291 85.3209 268.443 104.114 268.79 120.141C269.252 141.471 252.384 145.507 247.301 145.737C239.792 146.198 209.176 144.354 221.884 83.822Z" fill="#965450"/>
<path d="M220.267 103.769C220.267 103.769 219.574 100.54 214.028 103.077C206.981 106.42 210.793 123.254 218.65 122.793C226.621 122.447 220.267 103.769 220.267 103.769Z" fill="#965450"/>
<path d="M220.268 103.769C220.268 103.769 219.343 115.298 222.001 115.414C224.773 115.529 227.662 94.5447 220.037 94.5447C212.412 94.7753 220.268 103.769 220.268 103.769Z" fill="#051F38"/>
<path d="M220.267 103.769C220.267 103.769 225.928 78.1724 259.547 82.4384C259.547 82.4384 254.695 72.8686 244.066 68.372C229.625 62.2612 208.021 86.8198 214.029 103.077C214.029 103.077 216.801 103.423 220.267 103.769Z" fill="#34CB79"/>
<path d="M206.057 80.1324C206.057 80.1324 207.906 49.5783 200.512 49.5783C193.118 49.5783 201.09 75.2899 201.09 75.2899C201.09 75.2899 194.966 38.5097 177.175 44.044C159.383 49.5783 190.114 75.2899 190.114 75.2899C190.114 75.2899 176.02 62.3765 171.052 66.7578C166.2 71.0238 191.27 79.6712 191.27 79.6712C191.27 79.6712 172.207 74.1369 169.781 83.3608C167.355 92.4693 206.635 91.2011 206.057 80.1324Z" fill="#051F38"/>
<path d="M267.866 97.8889C267.866 97.8889 267.866 97.6583 267.635 97.1971C267.404 96.7359 267.173 96.1594 266.595 95.5829C266.017 95.0064 265.324 94.3146 264.4 93.8534C264.169 93.7381 263.938 93.6228 263.591 93.5075C263.36 93.3922 263.013 93.2769 262.782 93.2769C262.436 93.2769 262.205 93.1616 261.858 93.1616H260.934C260.356 93.1616 259.779 93.3922 259.201 93.6228C258.623 93.8534 258.161 94.084 257.699 94.4299C257.237 94.7758 256.89 95.1217 256.544 95.4676C256.197 95.8135 255.966 96.1594 255.851 96.5053C255.735 96.6206 255.62 96.8512 255.62 96.9665C255.504 97.0818 255.504 97.3124 255.389 97.4277C255.273 97.7736 255.157 98.0042 255.157 98.2348C255.042 98.6959 255.042 98.9265 255.042 98.9265C255.042 98.9265 255.273 98.8112 255.735 98.696C255.966 98.5807 256.197 98.4653 256.428 98.3501C256.659 98.2348 257.006 98.1195 257.353 97.8889C257.699 97.7736 257.93 97.543 258.277 97.4277C258.623 97.3124 258.97 97.1971 259.317 97.0818C259.663 96.9665 260.01 96.8512 260.356 96.7359C260.703 96.7359 261.049 96.6206 261.396 96.6206H261.858C261.974 96.6206 262.205 96.6206 262.436 96.6206C262.782 96.6206 263.129 96.7359 263.476 96.7359C263.822 96.8512 264.169 96.8512 264.515 96.9665C264.862 97.0818 265.209 97.0818 265.555 97.1971C266.248 97.4277 266.826 97.543 267.173 97.6583C267.519 97.8889 267.866 97.8889 267.866 97.8889Z" fill="#051F38"/>
<path d="M258.97 129.595C258.97 129.595 240.023 130.172 238.753 129.941C237.597 129.711 249.381 138.935 258.97 129.595Z" fill="white"/>
<path d="M257.699 108.496C257.699 108.496 257.699 108.726 257.815 109.188C257.93 109.649 258.046 110.225 258.277 111.032C258.392 111.378 258.508 111.839 258.739 112.185C258.855 112.416 258.97 112.647 259.086 112.762C259.201 112.992 259.432 113.223 259.548 113.338C259.894 113.684 260.241 114.145 260.819 114.376C260.934 114.491 261.05 114.491 261.281 114.607L261.627 114.722C261.858 114.837 262.205 114.837 262.551 114.837C263.129 114.837 263.822 114.722 264.284 114.261C264.747 113.915 265.093 113.454 265.324 112.877C265.555 112.416 265.671 111.955 265.786 111.494C265.902 111.032 265.902 110.571 265.902 110.225C265.902 109.418 265.902 108.842 265.786 108.381C265.671 107.919 265.555 107.689 265.555 107.689C265.555 107.689 265.555 108.726 265.209 110.225C265.093 110.917 264.862 111.839 264.4 112.531C264.169 112.877 263.938 113.223 263.591 113.454C263.245 113.684 262.898 113.8 262.551 113.8C262.32 113.8 262.205 113.8 261.974 113.684L261.627 113.569C261.627 113.569 261.512 113.454 261.396 113.454C261.05 113.338 260.703 112.992 260.356 112.762C260.01 112.416 259.779 112.07 259.548 111.724C259.317 111.378 259.086 111.032 258.97 110.686C258.623 109.995 258.392 109.418 258.161 109.072C257.815 108.726 257.699 108.496 257.699 108.496Z" fill="#1F2733"/>
<path d="M238.637 109.995C238.637 109.995 238.637 110.225 238.752 110.686C238.868 111.148 238.983 111.724 239.214 112.531C239.33 112.877 239.445 113.338 239.677 113.684C239.792 113.915 239.908 114.145 240.023 114.261C240.139 114.491 240.37 114.722 240.485 114.837C240.832 115.183 241.178 115.644 241.756 115.875C241.872 115.99 241.987 115.99 242.218 116.106L242.565 116.221C242.796 116.336 243.142 116.336 243.489 116.336C244.067 116.336 244.76 116.221 245.222 115.76C245.684 115.414 246.031 114.953 246.262 114.376C246.493 113.915 246.608 113.454 246.724 112.992C246.839 112.531 246.839 112.07 246.839 111.724C246.839 110.917 246.839 110.341 246.724 109.879C246.608 109.418 246.493 109.188 246.493 109.188C246.493 109.188 246.493 110.225 246.146 111.724C246.031 112.416 245.8 113.338 245.337 114.03C245.106 114.376 244.875 114.722 244.529 114.953C244.182 115.183 243.836 115.298 243.489 115.298C243.258 115.298 243.142 115.298 242.911 115.183L242.565 115.068C242.565 115.068 242.449 114.953 242.334 114.953C241.987 114.837 241.641 114.491 241.294 114.261C240.947 113.915 240.716 113.569 240.485 113.223C240.254 112.877 240.023 112.531 239.908 112.185C239.561 111.494 239.33 110.917 239.099 110.571C238.752 110.225 238.637 109.995 238.637 109.995Z" fill="#1F2733"/>
<path d="M217.61 119.565C217.264 119.103 217.033 118.757 216.802 118.296C216.571 117.835 216.455 117.374 216.34 116.913C216.34 116.682 216.34 116.451 216.34 116.221C216.34 116.106 216.455 115.99 216.455 115.99C216.455 115.875 216.571 115.76 216.686 115.76C216.802 115.644 216.802 115.644 216.917 115.529L217.148 115.298C217.264 115.183 217.379 115.183 217.495 115.183L217.841 115.068L218.073 114.953V114.722C218.419 113.454 218.535 112.301 218.65 111.032C218.766 110.456 218.766 109.764 218.65 109.188C218.65 108.496 218.535 107.919 218.304 107.228C218.188 106.882 217.957 106.536 217.61 106.305C217.264 106.075 216.802 105.844 216.455 105.959C215.993 105.959 215.762 106.075 215.415 106.19C215.069 106.305 214.722 106.421 214.491 106.651C214.26 106.882 213.913 107.112 213.798 107.343C213.567 107.574 213.451 107.919 213.336 108.15C213.105 108.726 212.989 109.418 213.105 109.995C213.22 109.418 213.336 108.842 213.682 108.265C213.798 108.035 214.029 107.804 214.26 107.573C214.491 107.343 214.722 107.228 214.953 107.112C215.184 106.997 215.415 106.882 215.762 106.882C215.993 106.882 216.34 106.766 216.571 106.766C217.033 106.766 217.264 107.112 217.379 107.573C217.726 108.611 217.61 109.764 217.61 110.917C217.495 112.07 217.379 113.338 217.148 114.491L217.379 114.146L217.033 114.376C216.917 114.491 216.802 114.491 216.686 114.607L216.34 114.837C216.224 114.953 216.109 115.068 215.993 115.183C215.877 115.299 215.762 115.414 215.762 115.644C215.646 115.76 215.646 115.99 215.646 116.106C215.531 116.451 215.646 116.682 215.646 117.028C215.762 117.604 216.109 118.066 216.455 118.527C216.802 118.873 217.264 119.334 217.61 119.565Z" fill="#76413B"/>
<path d="M255.966 124.407C256.544 124.522 257.006 124.522 257.468 124.522C257.93 124.522 258.392 124.407 258.739 124.292C259.201 124.176 259.548 123.946 259.894 123.831C260.125 123.715 260.241 123.6 260.472 123.485C260.703 123.369 260.818 123.254 261.049 123.139L261.743 122.562L261.627 122.101C260.472 118.757 259.317 115.529 258.161 112.301C257.006 109.072 255.735 105.729 254.464 102.5C255.273 105.844 256.197 109.303 257.006 112.647C257.93 115.99 258.854 119.334 259.779 122.678L260.241 121.64C260.01 121.64 259.779 121.755 259.548 121.755C259.317 121.755 259.085 121.87 258.97 121.986C258.623 122.101 258.161 122.332 257.815 122.562C257.468 122.793 257.121 123.139 256.775 123.485C256.544 123.6 256.197 123.946 255.966 124.407Z" fill="#76413B"/>
<path d="M249.15 96.5048C249.15 96.5048 249.034 96.1589 248.688 95.813C248.457 95.5824 248.341 95.3518 247.995 95.0059C247.648 94.7753 247.417 94.4294 246.955 94.1988C246.608 93.9682 246.146 93.6223 245.569 93.3917C245.106 93.1611 244.529 92.9305 243.951 92.6999C243.373 92.5846 242.68 92.354 241.987 92.354C241.64 92.354 241.294 92.354 240.947 92.354L239.908 92.4693C239.214 92.4693 238.521 92.8152 237.944 92.9305C237.366 93.1611 236.788 93.507 236.211 93.7376C235.633 94.0835 235.171 94.4294 234.824 94.7753C234.362 95.1212 234.016 95.5824 233.784 95.9283C233.438 96.2742 233.207 96.6201 232.976 96.966C232.745 97.3119 232.629 97.6578 232.514 97.8884C232.283 98.3496 232.167 98.6955 232.167 98.6955C232.167 98.6955 232.514 98.5802 232.976 98.3496C233.207 98.2343 233.553 98.119 233.9 97.8884C234.247 97.6578 234.593 97.5425 235.055 97.4272C235.402 97.3119 235.864 97.0813 236.326 96.8507C236.788 96.7354 237.25 96.5048 237.712 96.3895C238.175 96.2742 238.637 96.1589 239.099 96.0436C239.561 96.0436 240.023 95.813 240.601 95.813L241.294 95.6977H241.987C242.449 95.6977 243.027 95.6977 243.489 95.6977C243.951 95.6977 244.413 95.6977 244.875 95.813C245.337 95.813 245.8 95.9283 246.262 95.9283C247.07 96.0436 247.879 96.1589 248.341 96.2742C248.803 96.5048 249.15 96.5048 249.15 96.5048Z" fill="#051F38"/>
<path d="M265.093 490.825C265.093 494.976 268.443 498.435 272.602 498.55C276.761 498.55 280.227 495.207 280.343 491.056L280.689 466.613C280.689 462.462 277.339 459.003 273.18 458.888C269.021 458.888 265.555 462.231 265.44 466.382L265.093 490.825Z" fill="#091E1D"/>
<path d="M371.496 492.095C371.496 496.245 374.846 499.704 379.005 499.82C383.164 499.82 386.63 496.476 386.746 492.325L387.092 467.882C387.092 463.731 383.742 460.272 379.583 460.157C375.424 460.157 371.958 463.501 371.842 467.651L371.496 492.095Z" fill="#091E1D"/>
<path d="M273.642 473.415C273.527 482.87 281.152 490.595 290.625 490.71L361.791 491.517C371.265 491.633 379.005 484.023 379.121 474.568L386.746 312.92C386.861 303.466 379.236 295.741 369.763 295.625L287.159 294.588C277.686 294.472 269.945 302.082 269.83 311.536L273.642 473.415Z" fill="#4F21AB"/>
<path opacity="0.1" d="M270.292 327.793L269.945 311.767C270.061 302.313 277.801 294.703 287.275 294.818L369.879 295.856C379.352 295.971 386.977 303.696 386.861 313.151L386.053 329.177L270.292 327.793Z" fill="#161826"/>
<path d="M256.197 307.732C256.197 310.383 258.277 312.459 260.934 312.574L395.873 314.188C398.53 314.188 400.609 312.113 400.725 309.461L400.956 292.397C400.956 289.745 398.877 287.67 396.219 287.554L261.281 285.94C258.623 285.94 256.544 288.016 256.428 290.667L256.197 307.732Z" fill="#4F21AB"/>
<path d="M327.826 355.119L312.114 345.665L315.926 355.465L327.826 355.119Z" fill="white"/>
<path d="M333.717 340.246C333.717 340.246 332.446 340.246 330.482 343.243C328.518 346.241 324.128 354.312 324.128 354.312L316.157 350.738L314.308 347.625C314.308 347.625 317.774 340.707 320.547 340.246H333.717Z" fill="white"/>
<path d="M338.108 342.321C338.108 342.321 335.682 339.669 333.718 341.053C331.754 342.437 328.288 348.202 328.288 348.202L333.949 358.117L344.115 352.468L338.108 342.321Z" fill="white"/>
<path d="M320.662 367.456L319.854 385.673L326.67 377.718L320.662 367.456Z" fill="white"/>
<path d="M304.719 369.301C304.719 369.301 305.297 370.454 308.879 370.8C312.46 371.146 321.702 371.146 321.702 371.146L322.396 379.908L320.547 383.021C320.547 383.021 312.807 383.367 311.074 381.061L304.719 369.301Z" fill="white"/>
<path d="M304.604 364.458C304.604 364.458 303.333 367.802 305.528 368.955C307.608 369.993 314.424 370.223 314.424 370.223L320.547 360.538L310.727 354.197L304.604 364.458Z" fill="white"/>
<path d="M334.528 367.226L350.702 358.693L340.304 356.849L334.528 367.226Z" fill="white"/>
<path d="M344.115 380.024C344.115 380.024 344.808 378.986 343.306 375.758C341.805 372.529 337.183 364.574 337.183 364.574L344.346 359.616L347.928 359.731C347.928 359.731 352.087 366.303 351.047 368.84L344.115 380.024Z" fill="white"/>
<path d="M340.072 382.56C340.072 382.56 343.653 381.868 343.422 379.562C343.306 377.141 340.072 371.261 340.072 371.261L328.634 370.915L328.172 382.56H340.072Z" fill="white"/>
<path d="M575.753 445.167C575.753 445.167 578.294 485.868 580.489 486.675C588.923 489.557 652.58 505.699 592.389 478.604L594.006 448.972L575.753 445.167Z" fill="#051F38"/>
<path d="M578.41 476.759C576.908 464.422 575.753 445.167 575.753 445.167L594.006 448.972L592.504 475.376C587.999 476.644 582.8 476.759 578.41 476.759Z" fill="#041523"/>
<path d="M617.921 492.786C619.769 497.282 586.497 488.75 580.489 486.675C580.374 486.56 580.143 486.329 579.912 485.752C587.421 487.828 610.18 493.016 617.921 492.786Z" fill="white"/>
<path d="M536.819 442.977C536.819 442.977 533.468 483.677 531.158 484.369C522.609 487.136 458.721 502.01 519.489 476.067L518.45 446.436L536.819 442.977Z" fill="#051F38"/>
<path d="M533.468 474.453C535.201 462.232 536.819 442.977 536.819 442.977L518.45 446.436L519.374 472.839C523.88 474.223 529.078 474.338 533.468 474.453Z" fill="#041523"/>
<path d="M493.611 489.788C491.647 494.284 525.15 486.329 531.158 484.369C531.389 484.369 531.504 484.023 531.735 483.446C524.226 485.522 501.351 490.249 493.611 489.788Z" fill="white"/>
<path d="M525.613 223.218C525.613 223.218 508.977 357.31 512.327 465.806C512.327 465.806 532.198 471.34 537.397 467.305C541.903 441.593 541.325 391.554 548.026 354.427C554.38 319.377 556.921 290.667 556.921 290.667L559.001 288.361C559.001 288.361 572.634 457.85 575.637 470.764C592.851 474.799 598.281 470.072 598.281 470.072C598.281 470.072 606.137 258.038 601.285 223.794C595.046 179.059 525.613 223.218 525.613 223.218Z" fill="#6633CC"/>
<path opacity="0.1" d="M522.61 251.004C524.343 233.709 525.73 223.333 525.73 223.333C525.73 223.333 595.047 179.173 601.402 223.909C601.979 228.06 602.326 234.862 602.672 243.51C597.474 246.392 532.546 255.616 522.61 251.004Z" fill="#161826"/>
<path opacity="0.1" d="M558.192 286.978C557.384 296.086 553.225 325.488 548.026 354.427C541.325 391.669 541.903 441.593 537.397 467.305C532.198 471.34 512.327 465.806 512.327 465.806C510.363 399.048 515.793 322.605 520.414 273.719C531.389 280.636 545.369 283.98 558.192 286.978Z" fill="#161826"/>
<path d="M552.3 105.959C552.185 91.8929 551.145 73.3298 551.145 73.3298L578.872 65.7201C578.872 65.7201 577.948 90.8552 577.139 106.19C589.732 110.456 604.058 118.527 604.058 118.527L551.723 131.786L533.122 113.8C533.122 113.8 542.48 109.072 552.3 105.959Z" fill="#FFB39F"/>
<path d="M552.3 105.959C552.185 91.8929 551.145 73.3298 551.145 73.3298L578.872 65.7201C578.872 65.7201 577.948 90.8552 577.139 106.19C589.732 110.456 604.058 118.527 604.058 118.527L551.723 131.786L526.999 110.571C526.999 110.571 542.365 104.806 552.3 105.959Z" fill="#E09B8D"/>
<path d="M581.298 39.0862C581.298 39.0862 574.02 15.5653 554.842 19.2549C535.664 22.9444 532.891 47.9642 530.465 64.7978C528.039 81.7466 533.469 96.966 548.488 98.8108C561.543 100.425 584.302 97.8884 581.298 39.0862Z" fill="#FFB39F"/>
<path d="M580.374 58.8022C580.374 58.8022 581.529 55.6892 586.266 59.1481C592.274 63.5295 586.151 79.6712 578.872 77.9418C571.594 76.2123 580.374 58.8022 580.374 58.8022Z" fill="#FFB39F"/>
<path d="M587.075 25.5963C586.613 25.481 577.601 24.7892 583.609 25.3657C578.064 31.3612 578.641 32.8601 571.016 34.2436C566.973 46.6959 574.944 54.1903 574.944 54.1903L572.749 69.1791L578.526 69.7556C578.526 69.7556 578.41 59.3787 582.8 58.4563C587.19 57.5339 588.461 62.8377 588.461 62.8377C597.588 51.3078 606.831 28.7093 587.075 25.5963Z" fill="#051F38"/>
<path d="M534.74 17.1795C531.043 8.07089 537.281 0 537.281 0C536.242 3.34366 536.704 6.45671 537.744 8.99328C538.437 6.45671 539.708 3.68955 542.018 0.922387C542.018 0.922387 541.325 10.1463 553.918 8.99328C566.511 7.84029 588.577 9.56977 589.501 29.0552C590.541 48.5407 571.709 34.3589 571.709 34.3589C571.709 34.3589 534.162 44.8511 528.732 14.6429L534.74 17.1795Z" fill="#051F38"/>
<path d="M552.531 50.8476C552.531 50.8476 552.878 50.8476 553.34 50.7323C553.918 50.617 554.611 50.5017 555.419 50.3864C555.882 50.2711 556.228 50.2711 556.69 50.2711C557.152 50.1558 557.614 50.1558 558.077 50.1558C558.539 50.1558 559.001 50.1558 559.579 50.1558C559.81 50.1558 560.041 50.1558 560.272 50.1558L560.965 50.2711C561.427 50.2711 561.889 50.3864 562.467 50.5017C562.929 50.617 563.391 50.7323 563.853 50.8476C564.315 50.9629 564.777 51.1935 565.239 51.3088C565.702 51.4241 566.048 51.6547 566.51 51.77C566.857 51.8853 567.319 52.0006 567.55 52.2312C567.897 52.3465 568.128 52.4618 568.359 52.5771C568.821 52.8077 569.167 52.923 569.167 52.923C569.167 52.923 569.052 52.5771 568.821 52.1159C568.705 51.8853 568.59 51.5394 568.359 51.1935C568.128 50.8476 567.897 50.5017 567.55 50.1558C567.203 49.8099 566.972 49.3487 566.51 49.0028C566.048 48.6569 565.586 48.311 565.008 47.9651C564.431 47.7345 563.853 47.3886 563.275 47.158C562.582 46.9274 562.005 46.8121 561.311 46.6968L560.272 46.5815C559.925 46.5815 559.578 46.5815 559.232 46.6968C558.885 46.6968 558.539 46.8121 558.308 46.8121C557.961 46.9274 557.73 46.9274 557.383 47.0427C556.806 47.2733 556.228 47.3886 555.766 47.7345C555.304 47.9651 554.842 48.311 554.38 48.5416C554.033 48.7722 553.686 49.1181 553.34 49.3487C553.109 49.5793 552.878 49.9252 552.647 50.0405C552.762 50.5017 552.531 50.8476 552.531 50.8476Z" fill="#051F38"/>
<path d="M533.007 50.2701C533.007 50.2701 533.238 50.1548 533.7 50.0395C534.162 49.9242 534.74 49.6936 535.318 49.463C535.664 49.3477 536.011 49.2325 536.357 49.1172C536.704 49.0019 537.051 48.8865 537.397 48.8865C537.744 48.8865 538.09 48.7713 538.437 48.656C538.552 48.656 538.784 48.656 538.899 48.5407H539.361C539.708 48.4254 540.054 48.656 540.401 48.5407C540.748 48.656 541.094 48.656 541.441 48.7713C541.787 48.8866 542.134 49.0019 542.48 49.1172C542.827 49.2325 543.174 49.3477 543.405 49.463C543.751 49.5783 544.098 49.6936 544.329 49.8089C544.56 49.9242 544.791 50.0395 545.022 50.0395C545.484 50.1548 545.715 50.2701 545.715 50.2701C545.715 50.2701 545.715 50.0395 545.484 49.5783C545.369 49.3477 545.369 49.1171 545.138 48.7713C545.022 48.4254 544.791 48.1948 544.56 47.8489C544.329 47.503 544.098 47.1571 543.751 46.8112C543.405 46.4653 542.943 46.2347 542.596 45.8888C542.134 45.6582 541.556 45.4276 541.094 45.197C540.516 45.0817 539.939 44.9664 539.361 44.9664C539.015 44.9664 538.784 44.9664 538.437 44.9664C538.09 44.9664 537.859 45.0817 537.628 45.197C537.397 45.197 537.051 45.3123 536.82 45.4276C536.588 45.5429 536.357 45.6582 536.126 45.7735C535.202 46.35 534.509 46.9265 534.047 47.6183C533.585 48.3101 533.354 48.8866 533.123 49.3477C533.007 50.0395 533.007 50.2701 533.007 50.2701Z" fill="#051F38"/>
<path d="M547.217 51.5384C546.524 53.0373 545.83 54.6515 545.137 56.1504C544.791 56.9574 544.56 57.6492 544.213 58.4563L543.289 60.7623L542.365 63.0683C542.018 63.8754 541.787 64.5671 541.44 65.3742L540.978 66.5272C540.863 66.8731 540.632 67.3343 540.516 67.6802C540.169 68.372 539.823 69.0638 539.476 69.8709L539.13 70.7933L539.823 71.1392C540.863 71.6004 541.902 72.1768 543.058 72.638C544.097 73.0992 545.253 73.5604 546.408 73.9063C545.484 73.0992 544.56 72.4074 543.635 71.7157C542.711 71.0239 541.671 70.3321 540.747 69.6403L541.094 70.9086C541.556 70.2168 542.018 69.4097 542.48 68.7179C542.942 68.0261 543.289 67.219 543.635 66.4119L544.213 65.2589L544.675 64.106C544.906 63.2989 545.253 62.4918 545.484 61.6847L546.177 59.2634C546.408 58.4563 546.524 57.6492 546.755 56.8421C546.87 54.9974 547.101 53.2679 547.217 51.5384Z" fill="#DD9078"/>
<path d="M580.721 74.5981C581.183 74.3675 581.645 74.0216 581.991 73.5604C582.338 73.2145 582.8 72.7533 583.031 72.1769C583.147 71.9463 583.262 71.6004 583.262 71.2545C583.262 71.1392 583.262 70.9086 583.262 70.7933C583.262 70.678 583.147 70.4474 583.147 70.3321C583.031 69.9862 582.8 69.7556 582.569 69.525C582.454 69.4097 582.338 69.2944 582.223 69.1791L581.876 68.9485L582.107 69.2944C582.107 68.0261 582.107 66.7578 582.223 65.6048C582.338 64.3366 582.454 63.0683 582.916 62.0306C583.031 61.8 583.147 61.5694 583.378 61.4541C583.493 61.3388 583.724 61.2235 583.955 61.2235C584.071 61.2235 584.187 61.2235 584.302 61.3388C584.418 61.3388 584.649 61.4541 584.764 61.4541C584.995 61.5694 585.226 61.6847 585.457 61.9153C585.688 62.1459 585.92 62.2612 586.035 62.4918C586.151 62.7224 586.382 62.953 586.497 63.2989C586.728 63.8754 586.844 64.4519 586.844 65.1436C587.075 64.5671 587.075 63.8754 586.959 63.1836C586.959 62.8377 586.844 62.4918 586.613 62.2612C586.497 61.9153 586.266 61.6847 586.035 61.4541L585.688 61.1082L585.226 60.7623C585.111 60.647 584.88 60.647 584.764 60.5317C584.649 60.4164 584.418 60.4164 584.187 60.3011C583.724 60.1858 583.262 60.3011 582.916 60.647C582.569 60.8776 582.338 61.2235 582.223 61.5694C581.876 62.2612 581.76 62.8377 581.529 63.5295C581.414 64.2213 581.298 64.7977 581.298 65.4895C581.183 66.7578 581.183 68.0261 581.298 69.4097V69.6403L581.529 69.7556C581.76 69.8709 581.991 69.9862 582.107 70.2168C582.223 70.3321 582.454 70.5627 582.569 70.678C582.685 70.7933 582.685 70.9086 582.685 71.0239C582.685 71.1392 582.8 71.2545 582.8 71.3698C582.8 71.6004 582.8 71.831 582.8 72.0615C582.685 72.5227 582.454 72.9839 582.107 73.4451C581.414 73.9063 581.067 74.2522 580.721 74.5981Z" fill="#DD9078"/>
<path d="M562.583 61.8C562.583 61.8 562.467 62.0306 562.351 62.4917C562.236 62.7223 562.236 62.9529 562.12 63.1835C562.005 63.4141 561.889 63.76 561.658 64.1059C561.543 64.4518 561.196 64.6824 561.081 65.0283C560.965 65.1436 560.85 65.2589 560.619 65.4895C560.503 65.6048 560.387 65.7201 560.156 65.8354C559.81 66.066 559.463 66.1813 559.117 66.2966C558.886 66.2966 558.77 66.4119 558.539 66.4119C558.308 66.4119 558.192 66.4119 557.961 66.2966L557.384 66.066L556.806 65.7201C556.459 65.4895 556.228 65.1436 555.997 64.7977C555.766 64.4518 555.651 64.1059 555.42 63.76C555.304 63.4141 555.189 63.0682 555.189 62.607C555.189 62.2611 555.189 61.9152 555.073 61.6847C555.073 61.3388 555.073 61.1082 555.073 60.8776C555.073 60.4164 555.073 60.1858 555.073 60.1858C555.073 60.1858 554.958 60.4164 554.842 60.8776C554.726 61.1082 554.726 61.3388 554.611 61.6847C554.611 62.0305 554.495 62.3764 554.495 62.7223C554.495 63.0682 554.495 63.5294 554.611 63.9906C554.726 64.4518 554.842 64.913 555.073 65.3742C555.304 65.8354 555.651 66.2966 556.113 66.6425L556.806 67.1037C557.037 67.219 557.384 67.3343 557.615 67.4496C557.846 67.4496 558.192 67.5649 558.539 67.5649C558.77 67.5649 559.117 67.4496 559.348 67.4496C559.925 67.3343 560.387 66.9884 560.85 66.6425C561.312 66.2966 561.543 65.8354 561.774 65.4895C562.005 65.0283 562.236 64.6824 562.351 64.3365C562.467 63.9906 562.583 63.6447 562.583 63.2988C562.583 62.9529 562.583 62.7223 562.583 62.4917C562.583 62.0306 562.583 61.8 562.583 61.8Z" fill="#1F2733"/>
<path d="M541.671 58.341C541.671 58.341 541.556 58.5716 541.44 59.0328C541.325 59.2634 541.325 59.494 541.209 59.7246C541.094 59.9552 540.978 60.3011 540.747 60.647C540.632 60.9929 540.285 61.2235 540.169 61.5694C540.054 61.6847 539.938 61.8 539.707 62.0306C539.592 62.1459 539.476 62.2612 539.245 62.3765C538.899 62.6071 538.552 62.7224 538.205 62.8377C537.974 62.8377 537.859 62.953 537.628 62.953C537.397 62.953 537.281 62.953 537.05 62.8377L536.473 62.6071L535.895 62.2612C535.548 62.0306 535.317 61.6847 535.086 61.3388C534.855 60.9929 534.74 60.647 534.509 60.3011C534.393 59.9552 534.277 59.6093 534.277 59.1481C534.277 58.8022 534.277 58.4563 534.162 58.2257C534.162 57.8798 534.162 57.6492 534.162 57.4186C534.162 56.9574 534.162 56.7269 534.162 56.7269C534.162 56.7269 534.046 56.9574 533.931 57.4186C533.815 57.6492 533.815 57.8798 533.7 58.2257C533.7 58.5716 533.584 58.9175 533.584 59.2634C533.584 59.6093 533.584 60.0705 533.7 60.5317C533.815 60.9929 533.931 61.4541 534.162 61.9153C534.393 62.3765 534.74 62.8377 535.202 63.1836L535.895 63.6448C536.126 63.7601 536.473 63.8754 536.704 63.9906C536.935 63.9906 537.281 64.106 537.628 64.106C537.859 64.106 538.205 63.9906 538.437 63.9906C539.014 63.8754 539.476 63.5295 539.938 63.1836C540.401 62.8377 540.632 62.3765 540.863 62.0306C541.094 61.5694 541.325 61.2235 541.44 60.8776C541.556 60.5317 541.671 60.1858 541.671 59.8399C541.671 59.494 541.671 59.2634 541.671 59.0328C541.671 58.5716 541.671 58.341 541.671 58.341Z" fill="#1F2733"/>
<path d="M560.763 78.1034C560.763 78.1034 560.879 78.1034 560.763 78.2187C560.648 78.334 560.417 78.4493 560.185 78.5646C559.723 78.9105 558.915 79.2564 557.99 79.7176C557.066 80.1788 555.911 80.64 554.756 80.9858C554.178 81.2164 553.485 81.3317 552.907 81.447C552.329 81.5623 551.636 81.6776 550.943 81.7929C549.672 81.9082 548.401 82.0235 547.131 81.9082C545.86 81.7929 544.82 81.5623 543.78 81.2164C542.856 80.8705 542.047 80.64 541.47 80.4094C540.892 80.1788 540.545 80.0635 540.545 80.0635C540.545 80.0635 540.776 80.4094 541.239 80.7552C541.701 81.2164 542.394 81.7929 543.318 82.3694C544.242 82.9459 545.513 83.5224 546.9 83.753C548.286 84.0989 549.788 84.0989 551.29 83.9836C551.983 83.8683 552.792 83.753 553.485 83.5224C554.178 83.2918 554.871 83.0612 555.449 82.7153C556.72 82.1388 557.759 81.447 558.568 80.7552C559.377 80.0635 560.07 79.3717 560.417 78.7952C560.648 78.5646 560.763 78.334 560.763 78.1034C560.879 78.1034 560.879 78.2187 560.763 78.1034Z" fill="#DD9078"/>
<path d="M542.711 105.613C542.711 105.613 513.135 102.5 509.323 125.099C505.51 147.813 505.857 153.923 505.857 153.923L534.739 149.657L542.711 105.613Z" fill="#34CB79"/>
<path d="M517.758 123.83C519.491 109.417 534.163 106.304 542.712 105.612C546.525 110.916 551.839 114.721 559.117 114.952C567.436 115.182 575.061 112.3 579.104 105.958C592.043 107.457 604.867 111.147 607.756 119.909C613.879 138.357 608.564 239.82 608.564 239.82C608.564 239.82 556.807 248.698 514.292 240.627C514.407 240.742 515.447 143.084 517.758 123.83Z" fill="#34CB79"/>
<path opacity="0.2" d="M610.758 169.258C610.527 202.695 608.563 239.936 608.563 239.936C608.563 239.936 556.806 248.814 514.291 240.743C514.291 240.743 515.1 166.606 516.833 134.784C548.141 146.429 579.45 157.959 610.758 169.258Z" fill="#352C38"/>
<path d="M578.873 196.007C578.873 196.007 580.028 192.664 574.714 190.473C569.399 188.282 514.638 173.985 511.172 174.447C507.707 174.908 465.307 179.981 464.614 182.287C463.921 184.593 515.332 201.196 515.332 201.196L578.873 196.007Z" fill="#E1EDFF"/>
<path d="M512.443 205.577C512.443 205.577 572.403 205.347 577.024 199.928C581.645 194.509 581.761 190.588 555.535 195.2C529.31 199.812 514.176 199.12 514.176 199.12C514.176 199.12 466.115 176.753 464.498 182.172C462.996 187.706 457.913 186.322 512.443 205.577Z" fill="#C0D5FF"/>
<path d="M464.613 182.287C466.115 176.868 514.291 199.236 514.291 199.236C514.291 199.236 514.407 199.236 514.753 199.236C513.714 201.311 512.905 203.271 511.981 205.462C457.913 186.322 462.996 187.706 464.613 182.287Z" fill="#B1C5E8"/>
<path d="M580.606 183.67C580.606 183.67 581.762 180.327 576.447 178.136C571.133 175.945 516.372 161.648 512.906 162.11C509.44 162.571 467.041 167.644 466.347 169.95C465.654 172.256 517.065 188.859 517.065 188.859L580.606 183.67Z" fill="#E1EDFF"/>
<path d="M514.176 193.356C514.176 193.356 574.136 193.125 578.757 187.706C583.378 182.287 583.494 178.367 557.269 182.979C531.043 187.591 515.909 186.899 515.909 186.899C515.909 186.899 467.849 164.531 466.231 169.95C464.845 175.369 459.646 173.985 514.176 193.356Z" fill="#C0D5FF"/>
<path d="M466.346 170.065C467.848 164.646 516.024 187.014 516.024 187.014C516.024 187.014 516.14 187.014 516.486 187.014C515.447 189.09 514.638 191.05 513.714 193.24C459.761 173.985 464.845 175.369 466.346 170.065Z" fill="#B1C5E8"/>
<path d="M580.837 173.639C580.837 173.639 581.877 170.757 576.794 168.797C571.71 166.837 518.682 154.269 515.332 154.73C511.981 155.192 470.968 159.688 470.275 161.648C469.582 163.608 519.375 178.367 519.375 178.367L580.837 173.639Z" fill="#E1EDFF"/>
<path d="M516.602 182.172C516.602 182.172 574.598 181.941 579.103 177.214C583.609 172.486 583.609 169.027 558.308 173.063C533.007 177.098 518.335 176.522 518.335 176.522C518.335 176.522 471.776 156.806 470.274 161.648C468.772 166.376 463.805 165.107 516.602 182.172Z" fill="#C0D5FF"/>
<path d="M470.274 161.648C471.776 156.921 518.335 176.522 518.335 176.522C518.335 176.522 518.45 176.522 518.797 176.522C517.873 178.251 516.948 180.096 516.14 181.941C463.805 165.107 468.772 166.376 470.274 161.648Z" fill="#B1C5E8"/>
<path d="M579.22 160.15C579.22 160.15 580.144 157.267 574.945 155.422C569.746 153.693 516.371 143.085 513.021 143.662C509.671 144.123 468.889 150.234 468.311 152.194C467.733 154.154 517.989 166.952 517.989 166.952L579.22 160.15Z" fill="white"/>
<path d="M515.331 171.102C515.331 171.102 573.327 168.681 577.601 163.838C581.876 158.88 581.876 155.537 556.691 160.494C531.505 165.452 516.833 165.452 516.833 165.452C516.833 165.452 469.581 147.581 468.31 152.308C466.924 157.035 461.956 155.998 515.331 171.102Z" fill="#C0D5FF"/>
<path d="M468.31 152.309C469.581 147.467 516.833 165.453 516.833 165.453C516.833 165.453 516.948 165.453 517.295 165.453C516.371 167.298 515.562 169.143 514.869 170.988C462.072 155.999 467.039 157.036 468.31 152.309Z" fill="#B1C5E8"/>
<path d="M609.372 162.34L580.836 155.422C580.836 155.422 574.713 196.93 573.096 199.236C571.478 201.542 523.764 203.848 523.764 203.848L509.901 204.655C509.901 204.655 568.475 229.213 585.342 219.298C602.44 209.151 609.372 162.34 609.372 162.34Z" fill="#FFB39F"/>
<path d="M606.599 167.298C597.819 164.646 589.27 161.418 580.259 159.458C580.605 156.921 580.836 155.422 580.836 155.422L609.372 162.34C609.372 162.34 609.025 164.416 608.448 167.875C607.755 167.644 607.177 167.413 606.599 167.298Z" fill="#E09B8D"/>
<path d="M515.215 208.46C515.215 208.46 493.496 202.695 493.496 198.313C493.496 193.932 501.352 178.136 495.806 199.236C495.806 199.236 507.359 170.642 498.117 200.619C498.117 200.619 507.128 177.329 501.005 201.196C501.005 201.196 510.248 185.054 503.547 202.349L511.865 205.462L531.852 205.231L542.48 215.608L515.215 208.46Z" fill="#FFB39F"/>
<path d="M464.382 187.36C464.382 187.36 475.935 158.766 466.693 188.744C466.693 188.744 475.704 165.453 469.581 189.32C469.581 189.32 478.824 173.178 472.932 190.588L479.286 193.586C476.975 193.817 473.971 193.701 471.545 192.894C464.151 191.395 462.072 188.859 462.072 186.553C462.072 182.172 469.928 166.376 464.382 187.36Z" fill="#FFB39F"/>
<path d="M434.922 490.825C434.922 494.976 438.272 498.435 442.431 498.55C446.591 498.55 450.056 495.207 450.172 491.056L450.519 466.613C450.519 462.462 447.168 459.003 443.009 458.888C438.85 458.888 435.384 462.231 435.269 466.382L434.922 490.825Z" fill="#091E1D"/>
<path d="M541.325 492.095C541.325 496.245 544.675 499.704 548.834 499.82C552.993 499.82 556.459 496.476 556.575 492.325L556.921 467.882C556.921 463.731 553.571 460.272 549.412 460.157C545.253 460.157 541.787 463.501 541.671 467.651L541.325 492.095Z" fill="#091E1D"/>
<path d="M443.471 473.415C443.355 482.87 450.98 490.595 460.454 490.71L531.62 491.517C541.093 491.633 548.834 484.023 548.949 474.568L556.574 312.92C556.69 303.466 549.065 295.741 539.592 295.625L456.988 294.588C447.514 294.472 439.774 302.082 439.658 311.536L443.471 473.415Z" fill="#34CB79"/>
<path d="M440.121 327.793L439.774 311.767C439.889 302.313 447.63 294.703 457.103 294.818L539.707 295.856C549.181 295.971 556.806 303.696 556.69 313.151L555.881 329.177L440.121 327.793Z" fill="#31B971"/>
<path d="M426.026 307.732C426.026 310.383 428.105 312.459 430.763 312.574L565.701 314.188C568.359 314.188 570.438 312.113 570.554 309.461L570.785 292.397C570.785 289.745 568.705 287.67 566.048 287.554L431.109 285.94C428.452 285.94 426.372 288.016 426.257 290.667L426.026 307.732Z" fill="#34CB79"/>
<path d="M497.654 355.119L481.942 345.665L485.755 355.465L497.654 355.119Z" fill="white"/>
<path d="M503.546 340.246C503.546 340.246 502.276 340.246 500.312 343.243C498.348 346.241 493.957 354.312 493.957 354.312L485.986 350.738L484.137 347.625C484.137 347.625 487.603 340.707 490.376 340.246H503.546Z" fill="white"/>
<path d="M507.936 342.321C507.936 342.321 505.51 339.669 503.546 341.053C501.582 342.437 498.116 348.202 498.116 348.202L503.777 358.117L513.944 352.468L507.936 342.321Z" fill="white"/>
<path d="M490.491 367.456L489.683 385.673L496.499 377.718L490.491 367.456Z" fill="white"/>
<path d="M474.549 369.301C474.549 369.301 475.126 370.454 478.708 370.8C482.289 371.146 491.531 371.146 491.531 371.146L492.225 379.908L490.376 383.022C490.376 383.022 482.636 383.367 480.903 381.061L474.549 369.301Z" fill="white"/>
<path d="M474.433 364.458C474.433 364.458 473.162 367.802 475.357 368.955C477.437 369.993 484.253 370.223 484.253 370.223L490.376 360.538L480.556 354.197L474.433 364.458Z" fill="white"/>
<path d="M504.24 367.226L520.415 358.694L510.132 356.849L504.24 367.226Z" fill="white"/>
<path d="M513.944 380.024C513.944 380.024 514.637 378.986 513.135 375.758C511.633 372.529 507.012 364.574 507.012 364.574L514.175 359.616L517.756 359.731C517.756 359.731 521.915 366.303 520.876 368.84L513.944 380.024Z" fill="white"/>
<path d="M509.785 382.56C509.785 382.56 513.366 381.868 513.135 379.562C513.02 377.141 509.785 371.261 509.785 371.261L498.347 370.915L497.885 382.56H509.785Z" fill="white"/>
</g>
<defs>
<linearGradient id="paint0_linear" x1="508.5" y1="153.5" x2="10" y2="652" gradientUnits="userSpaceOnUse">
<stop stop-color="white"/>
<stop offset="1" stop-color="white" stop-opacity="0"/>
</linearGradient>
<clipPath id="clip0">
<rect width="878" height="660" fill="white" transform="matrix(-1 0 0 1 878 0)"/>
</clipPath>
</defs>
</svg>
